<svg xmlns="http://www.w3.org/2000/svg" viewBox="0 1.649999976158142 139.35000610351562 33.94999694824219" data-asc="0.7" width="139.35000610351562" height="33.94999694824219"><defs/><g><g fill="#ffffff"><g transform="translate(0, 0)"><path d="M0 2L11.33 2Q14.15 2 16.56 2.77Q18.98 3.55 20.46 5.31Q21.95 7.07 21.95 10.07Q21.95 12.05 21.21 13.60Q20.48 15.15 19.26 16.14Q18.05 17.13 16.63 17.45Q17.88 17.60 19.06 18.16Q20.25 18.72 21.21 19.71Q22.18 20.70 22.74 22.16Q23.30 23.63 23.30 25.63Q23.30 28.40 22.06 30.51Q20.83 32.63 18.46 33.81Q16.10 35 12.68 35L0 35L0 2M7.47 29.02L10.88 29.02Q12.47 29.02 13.49 28.54Q14.50 28.05 14.97 27.14Q15.45 26.23 15.45 24.95Q15.45 22.95 14.21 22.01Q12.97 21.07 10.75 21.07L7.47 21.07L7.47 29.02M7.47 15.22L10.50 15.22Q11.83 15.22 12.71 14.75Q13.60 14.27 14.06 13.41Q14.53 12.55 14.53 11.42Q14.53 9.40 13.38 8.69Q12.22 7.97 10.22 7.97L7.47 7.97L7.47 15.22ZM34.73 35L27.13 35L27.13 14.47L34.73 14.47L34.73 17.65L34.60 17.65Q34.80 17.07 35.58 16.19Q36.35 15.30 37.75 14.59Q39.15 13.88 41.18 13.88Q42.60 13.88 43.80 14.31Q45.00 14.75 45.55 15.15L42.60 21.32Q42.25 20.90 41.36 20.44Q40.48 19.98 39.15 19.98Q37.63 19.98 36.64 20.75Q35.65 21.52 35.19 22.63Q34.73 23.73 34.73 24.70L34.73 35ZM57.50 35.60Q54.13 35.60 51.51 34.21Q48.90 32.83 47.41 30.39Q45.93 27.95 45.93 24.80Q45.93 21.65 47.41 19.19Q48.90 16.72 51.51 15.30Q54.13 13.88 57.50 13.88Q60.88 13.88 63.45 15.30Q66.03 16.72 67.48 19.19Q68.93 21.65 68.93 24.80Q68.93 27.95 67.48 30.39Q66.03 32.83 63.45 34.21Q60.88 35.60 57.50 35.60M57.50 29.35Q58.80 29.35 59.75 28.77Q60.70 28.20 61.23 27.15Q61.75 26.10 61.75 24.77Q61.75 23.42 61.23 22.38Q60.70 21.32 59.75 20.73Q58.80 20.13 57.50 20.13Q56.20 20.13 55.24 20.73Q54.28 21.32 53.74 22.38Q53.20 23.42 53.20 24.77Q53.20 26.10 53.74 27.15Q54.28 28.20 55.24 28.77Q56.20 29.35 57.50 29.35ZM88.68 23.10L83.90 35L76.93 35L70.13 14.47L78.20 14.47L81.48 26.88L86.20 14.88L91.20 14.88L95.85 26.88L99.15 14.47L107.23 14.47L100.45 35L93.50 35L88.68 23.10ZM118.58 13.88Q120.60 13.88 122.28 14.21Q123.95 14.55 125.09 14.97Q126.23 15.40 126.55 15.67L124.08 20.15Q123.60 19.80 122.31 19.25Q121.03 18.70 119.45 18.70Q118.25 18.70 117.43 19.06Q116.60 19.42 116.60 20.20Q116.60 20.98 117.51 21.44Q118.43 21.90 120.15 22.25Q121.65 22.55 123.20 23.20Q124.75 23.85 125.79 25.11Q126.83 26.38 126.83 28.48Q126.83 30.63 125.90 32.02Q124.98 33.42 123.45 34.20Q121.93 34.98 120.15 35.29Q118.38 35.60 116.70 35.60Q114.35 35.60 112.61 35.17Q110.88 34.75 109.80 34.20Q108.73 33.65 108.30 33.33L110.75 28.32Q111.40 28.88 112.88 29.56Q114.35 30.25 116 30.25Q117.60 30.25 118.48 29.77Q119.35 29.30 119.35 28.52Q119.35 27.90 118.93 27.52Q118.50 27.15 117.73 26.88Q116.95 26.60 115.85 26.38Q114.85 26.17 113.73 25.75Q112.60 25.32 111.60 24.59Q110.60 23.85 109.98 22.73Q109.35 21.60 109.35 20Q109.35 17.95 110.68 16.60Q112 15.25 114.10 14.56Q116.20 13.88 118.58 13.88ZM131.13 35L131.13 14.47L138.72 14.47L138.72 35L131.13 35M135.03 10.25Q133.22 10.25 131.97 8.99Q130.72 7.72 130.72 5.97Q130.72 4.22 131.99 2.94Q133.25 1.65 135.03 1.65Q136.20 1.65 137.18 2.24Q138.15 2.82 138.75 3.80Q139.35 4.77 139.35 5.97Q139.35 7.72 138.08 8.99Q136.80 10.25 135.03 10.25Z"/></g></g></g></svg>