<svg xmlns="http://www.w3.org/2000/svg" viewBox="0 9.25 148.5500030517578 37.349998474121094" data-asc="0.92" width="148.5500030517578" height="37.349998474121094"><defs/><g><g fill="#000000"><g transform="translate(0, 0)"><path d="M10.10 46.40Q7.05 46.40 4.33 46.25Q1.60 46.10 0 45.90L0 11.10Q1.75 10.90 4.35 10.75Q6.95 10.60 10.30 10.60Q16.70 10.60 20.15 13.02Q23.60 15.45 23.60 19.60Q23.60 22.35 22.13 24.27Q20.65 26.20 17.85 27.45Q21.25 28.65 23 30.77Q24.75 32.90 24.75 36Q24.75 40.75 21 43.58Q17.25 46.40 10.10 46.40M4.75 26.10L10.25 26.10Q14.20 26.10 16.53 24.45Q18.85 22.80 18.85 20.20Q18.85 17.40 16.55 15.92Q14.25 14.45 10.25 14.45Q8.60 14.45 7.25 14.52Q5.90 14.60 4.75 14.70L4.75 26.10M10.45 42.45Q14.90 42.45 17.40 40.85Q19.90 39.25 19.90 36.20Q19.90 33.20 17.45 31.50Q15 29.80 10.45 29.80L4.75 29.80L4.75 42.15Q7.40 42.45 10.45 42.45ZM31 46L31 20L35.35 20L35.35 25.65Q36 24 37.10 22.57Q38.20 21.15 39.85 20.27Q41.50 19.40 43.70 19.40Q44.45 19.40 45.20 19.47Q45.95 19.55 46.45 19.70L45.10 24.35Q44.15 23.95 42.85 23.95Q41 23.95 39.33 25Q37.65 26.05 36.58 28.25Q35.50 30.45 35.50 33.85L35.50 46L31 46ZM60.40 46.60Q56.70 46.60 53.75 44.88Q50.80 43.15 49.13 40.08Q47.45 37 47.45 33Q47.45 28.80 49.15 25.75Q50.85 22.70 53.80 21.05Q56.75 19.40 60.40 19.40Q64.05 19.40 66.98 21.05Q69.90 22.70 71.63 25.72Q73.35 28.75 73.35 32.90Q73.35 37.05 71.65 40.13Q69.95 43.20 67.03 44.90Q64.10 46.60 60.40 46.60M60.40 42.60Q64.35 42.60 66.55 39.92Q68.75 37.25 68.75 33Q68.75 30.40 67.65 28.22Q66.55 26.05 64.68 24.72Q62.80 23.40 60.40 23.40Q56.45 23.40 54.25 26Q52.05 28.60 52.05 32.90Q52.05 35.50 53.15 37.73Q54.25 39.95 56.13 41.27Q58 42.60 60.40 42.60ZM84.30 46L76.10 21.20L80.25 19.75L86.95 40.90L93.05 21.85L97.90 21.85L103.85 40.90L110.50 19.75L114.50 21.20L106.25 46L101.30 46L95.30 26.65L89.25 46L84.30 46ZM126.75 46.60Q123.80 46.60 121.43 45.85Q119.05 45.10 117.50 43.90L119.40 40.15Q120.70 41.25 122.68 41.98Q124.65 42.70 126.90 42.70Q129.70 42.70 131.13 41.77Q132.55 40.85 132.55 39.40Q132.55 38.35 132.03 37.55Q131.50 36.75 130.10 35.98Q128.70 35.20 126.05 34.30Q122.40 33.05 120.58 31.32Q118.75 29.60 118.75 26.55Q118.75 23.55 121.38 21.47Q124.00 19.40 128.65 19.40Q131.15 19.40 133.10 19.92Q135.05 20.45 136.60 21.25L135.35 24.95Q134 24.15 132.28 23.65Q130.55 23.15 128.45 23.15Q125.85 23.15 124.50 24.20Q123.15 25.25 123.15 26.50Q123.15 27.70 124.20 28.55Q125.25 29.40 128.30 30.40Q133.25 32.05 135.20 34.05Q137.15 36.05 137.15 39.05Q137.15 42.55 134.33 44.58Q131.50 46.60 126.75 46.60ZM143.15 46L143.15 20L147.65 20L147.65 46L143.15 46M145.40 15.55Q144.10 15.55 143.18 14.60Q142.25 13.65 142.25 12.40Q142.25 10.95 143.10 10.10Q143.95 9.25 145.40 9.25Q146.70 9.25 147.63 10.17Q148.55 11.10 148.55 12.40Q148.55 13.80 147.70 14.67Q146.85 15.55 145.40 15.55Z"/></g></g></g></svg>